# xmcd
#
# Track frame offsets:
#	150
#	19038
#	37353
#	54095
#	71534
#	84321
#	103382
#	117560
#	130425
#	142792
#	155930
#	174107
#	188482
#	203599
#	217213
#	240987
#	254853
#	268154
#
# Disc length: 3750 seconds
#
# Revision: 1
# Processed by: cddbd v1.5.2PL0 Copyright (c) Steve Scherf et al.
# Submitted via: audiograbber 1.81.03
#
DISCID=0c0ea412
DTITLE=Various Artist - Hell Year! Disc 2
DYEAR=2012
DGENRE=Country
TTITLE0=Jimmy Buffett - Margaritaville [Album Version]
TTITLE1=Steve Forde - Drinking Things Over
TTITLE2=Sunny Cowgirls, The - Grog Monster
TTITLE3=Adam Harvey - God Made Beer
TTITLE4=Hank Williams - There's A Tear In My Beer [Original Singles Version]
TTITLE5=Tom T Hall - Old Dogs, Children and Watermelon Wine [Singles Version]
TTITLE6=Emmylou Harris - Two More Bottles Of Wine [Remastered Album Version]
TTITLE7=Adam Brand - I Did What
TTITLE8=Ernest Tubb - Pass The Booze
TTITLE9=Kirsty Lee Akers - Which One Of You Boys
TTITLE10=Troy Cassar-Daley - Thinkin' About Drinkin'
TTITLE11=Allan Caswell - Behind Bars
TTITLE12=Karl Broadie - Drink The Whole Bottle Down
TTITLE13=Peter Denahy - The Bloke Who Serves The Beer
TTITLE14=Bobby Charles - He's Got All The Whiskey
TTITLE15=Dirt Drifters, The - Always A Reason
TTITLE16=Don Allen - JD And Me
TTITLE17=Big and Rich - Drinkin' About You [Album Version]
EXTD=
EXTT0=
EXTT1=
EXTT2=
EXTT3=
EXTT4=
EXTT5=
EXTT6=
EXTT7=
EXTT8=
EXTT9=
EXTT10=
EXTT11=
EXTT12=
EXTT13=
EXTT14=
EXTT15=
EXTT16=
EXTT17=
PLAYORDER=
